<?xml version="1.0" standalone="no"?>
<!DOCTYPE svg PUBLIC "-//W3C//DTD SVG 20010904//EN"
 "http://www.w3.org/TR/2001/REC-SVG-20010904/DTD/svg10.dtd">
<svg version="1.0" xmlns="http://www.w3.org/2000/svg"
 width="1024.000000pt" height="1024.000000pt" viewBox="0 0 1024.000000 1024.000000"
 preserveAspectRatio="xMidYMid meet">

<g transform="translate(0.000000,1024.000000) scale(0.100000,-0.100000)"
fill="#000000" stroke="none">
<path d="M5337 9996 c-4 -127 -7 -808 -7 -1513 l0 -1283 -2665 0 -2665 0 0
-2035 0 -2035 2655 -2 2656 -3 -1 -1552 c0 -854 2 -1553 5 -1553 2 0 742 757
1643 1683 901 925 2004 2058 2451 2517 447 459 815 840 818 847 2 6 -631 681
-1409 1500 -777 818 -1877 1977 -2444 2574 l-1031 1086 -6 -231z"/>
</g>
</svg>
